<svg width="30" height="30" fill="none" xmlns="http://www.w3.org/2000/svg"><path d="M23.906 4.214H6.094A6.1 6.1 0 000 10.307v9.376a6.1 6.1 0 006.033 6.09c.02.004.04.013.06.013h7.5c.563 0 1.063-.254 1.407-.648.344.394.844.648 1.406.648.016 0 .03-.008.046-.01h7.454A6.1 6.1 0 0030 19.684v-9.376a6.1 6.1 0 00-6.094-6.093zM13.594 24.849H6.139c-.015-.002-.03-.01-.045-.01a5.162 5.162 0 01-5.157-5.156V13.54a6.09 6.09 0 005.157 2.862h7.5c.517 0 .937.42.937.937v.941H9.844c-.26 0-.469.21-.469.47v3.752c0 .26.21.469.469.469h4.687v.941c0 .516-.42.937-.937.937zm0-12.198h-7.5a2.346 2.346 0 01-2.344-2.344 2.346 2.346 0 012.344-2.343h17.812a2.346 2.346 0 012.344 2.343 2.346 2.346 0 01-2.344 2.344h-7.5c-.562 0-1.062.254-1.406.648a1.863 1.863 0 00-1.406-.648zm6.094 9.382h-4.67c-.006 0-.011-.004-.018-.004-.007 0-.012.003-.018.004h-4.67v-2.816h9.376v2.816zm9.375-2.35a5.162 5.162 0 01-5.157 5.157h-7.5c-.01 0-.02.005-.03.006a.937.937 0 01-.907-.935v-.941h4.687c.26 0 .469-.21.469-.469V18.75a.47.47 0 00-.469-.47H15.47v-.94c0-.517.42-.938.937-.938h7.5a6.088 6.088 0 005.157-2.861v6.143zm-5.157-4.22h-7.5c-.342 0-.66.1-.937.262v-1.199c0-.517.42-.937.937-.937h7.5a3.285 3.285 0 003.282-3.282 3.285 3.285 0 00-3.282-3.28H6.094a3.285 3.285 0 00-3.282 3.28 3.286 3.286 0 003.282 3.282h7.5c.517 0 .937.42.937.937v1.199a1.853 1.853 0 00-.937-.261h-7.5a5.162 5.162 0 01-5.157-5.157 5.162 5.162 0 015.157-5.156h17.812a5.162 5.162 0 015.157 5.156 5.162 5.162 0 01-5.157 5.157z" fill="#839B64"/></svg>