<svg width="32" height="32" fill="none" xmlns="http://www.w3.org/2000/svg"><g clip-path="url(#clip0)" fill="#839B64"><path d="M26.714 14.964c-.883-1.394-1.822-4.156-2.109-5.271-.316-1.108-.908-3.987-.841-5.609a1.169 1.169 0 00-.497-1.036 1.271 1.271 0 00-1.24-.118c-2.248 1.073-7.89 2.985-10.242 3.617-2.215.595-8.11 1.84-10.682 2.05a1.172 1.172 0 00-.966.638c-.2.387-.181.84.057 1.228.822 1.249 1.73 3.832 2.138 5.264.317 1.108.909 3.987.843 5.609-.028.41.158.797.496 1.037.21.148.461.225.719.225.174 0 .352-.035.52-.108 2.25-1.073 7.89-2.985 10.242-3.617 2.223-.597 8.11-1.844 10.644-2.05a1.17 1.17 0 00.97-.638 1.23 1.23 0 00-.052-1.22zm-.866.746a.143.143 0 01-.128.083c-2.596.21-8.581 1.476-10.836 2.082-2.386.64-8.123 2.587-10.4 3.674a.22.22 0 01-.216-.02c-.068-.048-.064-.106-.062-.138.072-1.773-.538-4.749-.88-5.948-.368-1.285-1.314-4.098-2.261-5.535a.202.202 0 01-.01-.2.14.14 0 01.121-.081h.007c2.626-.214 8.622-1.479 10.87-2.083 2.388-.64 8.125-2.587 10.4-3.674a.224.224 0 01.216.02c.069.048.065.106.063.138-.073 1.773.537 4.748.876 5.935.307 1.192 1.277 4.045 2.23 5.548a.202.202 0 01.01.2z"/><path d="M6.426 11.006a.516.516 0 00-.636-.36c-.372.103-1.12.047-1.504-.013a.524.524 0 00-.114-.005 1.172 1.172 0 00-.97.639 1.228 1.228 0 00.072 1.25c.004.005.293.408.247.845a.516.516 0 001.027.109c.08-.768-.32-1.392-.425-1.542a.201.201 0 01-.004-.188.142.142 0 01.086-.075c.292.04 1.235.15 1.861-.024a.517.517 0 00.36-.636zm18.542-.053c-.678-1.709-2.774-4.72-5.849-3.89a.516.516 0 10.27.998c2.95-.799 4.552 3.107 4.619 3.273a.517.517 0 00.96-.381zm-7.57 3.698a.515.515 0 00-.662.31c-.666 1.848-4.852 3.76-6.409 4.34a.516.516 0 00.361.969c.618-.23 6.07-2.33 7.02-4.957a.516.516 0 00-.31-.662z"/><path d="M31.884 15.83a1.231 1.231 0 00-.957-.689l-.035-.004c-1.091-.07-2.864-.366-4.455-.647a.517.517 0 00-.18 1.017c1.609.284 3.404.584 4.546.66a.194.194 0 01.148.107c.018.038.03.1-.015.175-.949 1.533-1.899 4.395-2.197 5.587-.322 1.289-.913 4.186-.84 5.945a.142.142 0 01-.06.134.175.175 0 01-.167.02c-2.388-1.141-8.187-3.05-10.425-3.65-2.249-.571-8.229-1.798-10.837-2.009a.195.195 0 01-.16-.108c-.019-.04-.03-.101.015-.177a.813.813 0 00.023-.04c.027-.054.062-.108.096-.163a3.22 3.22 0 00.145-.25.517.517 0 00-.925-.462c-.028.056-.062.11-.097.165a3.288 3.288 0 00-.134.229 1.21 1.21 0 00-.057 1.14c.179.376.536.634.984.693 2.484.201 8.422 1.407 10.685 1.981 2.2.591 7.903 2.466 10.26 3.592.162.069.33.103.496.103.247 0 .489-.075.696-.223.337-.238.52-.628.493-1.032-.062-1.51.451-4.198.812-5.638.333-1.333 1.263-3.986 2.073-5.295.22-.356.245-.79.069-1.16z"/><path d="M26.308 17.358a.517.517 0 00-.267.998c2.987.799 2.404 4.964 2.378 5.14a.517.517 0 001.021.154c.274-1.813-.028-5.462-3.132-6.292zm-5.286 5.672a.516.516 0 00-.728-.054c-1.486 1.28-6.063.82-7.7.537a.516.516 0 10-.178 1.017c.34.06 2.072.344 3.954.344 1.729 0 3.583-.24 4.598-1.116a.516.516 0 00.054-.728z"/></g><defs><clipPath id="clip0"><path fill="#fff" d="M0 0h32v32H0z"/></clipPath></defs></svg>