<svg width="28" height="28" fill="none" xmlns="http://www.w3.org/2000/svg"><g clip-path="url(#clip0)"><path d="M26.792 19.035c.574-.731.85-1.516.814-2.324-.035-.89-.433-1.587-.761-2.014.38-.949.527-2.442-.744-3.601-.93-.85-2.511-1.23-4.701-1.124-1.54.07-2.828.357-2.881.368h-.006a22.9 22.9 0 00-.92.188c-.023-.375.042-1.306.733-3.402.82-2.494.773-4.403-.153-5.68C17.201.106 15.65 0 15.193 0c-.44 0-.843.182-1.13.515-.65.756-.574 2.15-.492 2.793-.773 2.073-2.94 7.155-4.772 8.566a.63.63 0 00-.094.082 6.29 6.29 0 00-1.147 1.722 2.416 2.416 0 00-1.16-.293H2.827A2.438 2.438 0 00.39 15.821v9.515a2.438 2.438 0 002.436 2.436h3.571a2.43 2.43 0 001.406-.445l1.376.164c.21.029 3.958.503 7.805.427.697.053 1.352.082 1.961.082 1.048 0 1.962-.082 2.723-.246 1.792-.38 3.015-1.142 3.636-2.26a3.584 3.584 0 00.398-2.243c1.166-1.054 1.37-2.219 1.33-3.039a3.954 3.954 0 00-.24-1.177zM2.827 26.191a.856.856 0 01-.855-.855v-9.52c0-.475.386-.856.855-.856h3.571c.475 0 .855.387.855.855v9.515a.856.856 0 01-.855.855H2.827v.006zm22.466-7.84a.787.787 0 00-.105.954c0 .006.24.416.27.978.04.767-.329 1.446-1.101 2.026a.798.798 0 00-.27.901c0 .006.252.78-.158 1.511-.392.703-1.265 1.206-2.588 1.487-1.06.229-2.5.27-4.268.13h-.082c-3.765.081-7.571-.41-7.612-.417h-.006l-.592-.07a2.48 2.48 0 00.053-.515v-9.52c0-.253-.04-.499-.111-.727.105-.392.398-1.265 1.089-2.008 2.629-2.085 5.2-9.117 5.31-9.421a.741.741 0 00.036-.393c-.1-.656-.064-1.458.076-1.698.31.006 1.148.094 1.651.79.597.826.574 2.302-.07 4.257-.984 2.98-1.066 4.55-.287 5.241.387.345.902.363 1.277.228a16.5 16.5 0 011.018-.205l.076-.017c1.798-.393 5.018-.633 6.137.386.948.867.275 2.014.199 2.137a.783.783 0 00.14 1.02c.006.005.621.585.65 1.364.024.52-.222 1.053-.732 1.58z" fill="#839B64"/></g><defs><clipPath id="clip0"><path fill="#fff" d="M0 0h28v28H0z"/></clipPath></defs></svg>