<svg width="30" height="30" fill="none" xmlns="http://www.w3.org/2000/svg"><path d="M10.828 20.497a1.407 1.407 0 00-1.989 0l-.663.663a.469.469 0 01-.663 0l-.663-.663a.468.468 0 010-.663l1.326-1.325a.469.469 0 00-.663-.663l-1.325 1.326a1.407 1.407 0 000 1.989l.662.663a1.407 1.407 0 001.99 0l.662-.663a.469.469 0 01.663 0l.663.662a.47.47 0 010 .663l-1.325 1.326a.468.468 0 10.662.663l1.326-1.325a1.406 1.406 0 000-1.99l-.663-.663zm5.351-2.859l-4.972-2.983a.47.47 0 00-.572.07l-.664.664a.469.469 0 00-.07.572l2.983 4.972a.468.468 0 10.804-.483l-.806-1.343 1.47-1.471 1.344.806a.47.47 0 00.483-.804zm-3.795.64l-1.491-2.484.145-.145 2.485 1.491-1.139 1.138zm6.674-4.021l-1.657 1.657-3.646-3.646a.47.47 0 00-.67-.006.47.47 0 00.007.669l3.977 3.977a.469.469 0 00.663 0l1.989-1.989a.469.469 0 00-.663-.662zm3.12-3.121l-1.326 1.326-1.325-1.326.663-.663a.469.469 0 00-.663-.663l-.663.663-1.326-1.325 1.326-1.326a.469.469 0 10-.663-.663l-1.657 1.657a.469.469 0 000 .663l3.977 3.977a.469.469 0 00.663 0L22.84 11.8a.468.468 0 10-.663-.663z" fill="#839B64"/><path d="M27.31 8.264l.521-3.389a2.344 2.344 0 00-2.662-2.672L17.95 3.281a4.244 4.244 0 00-2.36 1.19L1.547 18.509a2.344 2.344 0 000 3.314l6.63 6.63a2.343 2.343 0 003.314 0l7.688-7.687c.804 3.93 2.612 6.422 4.727 6.422 2.892 0 5.157-4.735 5.157-10.782 0-3.163-.64-6.113-1.753-8.142zM10.828 27.79a1.44 1.44 0 01-1.989 0l-6.628-6.63a1.406 1.406 0 010-1.989l14.04-14.04a3.304 3.304 0 011.836-.925l7.219-1.078a1.416 1.416 0 01.8.113 1.407 1.407 0 01.8 1.493l-.363 2.364a4.826 4.826 0 00-.913-.872c-.003-.49-.2-.96-.547-1.306a1.922 1.922 0 00-2.652 0 1.875 1.875 0 102.928 2.288c.386.36.716.775.978 1.233l-.536 3.48a3.26 3.26 0 01-.923 1.82L10.828 27.79zM23.906 6.563c.229.001.455.047.666.134a.947.947 0 01-1.78-.533.949.949 0 011.73-.456 2.635 2.635 0 00-.616-.083.469.469 0 100 .938zm0 19.687c-1.694 0-3.289-2.578-3.92-6.292l5.552-5.553a4.188 4.188 0 001.187-2.344l.328-2.12a18.405 18.405 0 011.072 6.465c0 5.336-1.932 9.844-4.219 9.844z" fill="#839B64"/></svg>