<svg width="30" height="30" fill="none" xmlns="http://www.w3.org/2000/svg"><g clip-path="url(#clip0)" fill="#839B64"><path d="M28.297 12.781c-.463-.34-1.039-.765-1.114-1.047-.083-.308.21-.986.448-1.53.406-.934.826-1.9.36-2.707-.47-.816-1.529-.935-2.55-1.05-.583-.065-1.308-.146-1.525-.364-.217-.216-.298-.941-.364-1.524-.114-1.022-.233-2.078-1.05-2.55-.709-.413-1.76-.053-2.706.36-.523.227-1.068.443-1.531.448-.282-.074-.706-.65-1.048-1.114C16.63.905 15.963 0 15 0c-.961 0-1.63.905-2.217 1.702-.342.463-.766 1.04-1.165 1.128-.351 0-.891-.234-1.414-.461-.948-.412-2.001-.769-2.705-.36-.818.472-.937 1.528-1.052 2.55-.064.583-.146 1.307-.362 1.524-.218.218-.943.3-1.525.364-1.023.115-2.08.235-2.551 1.05-.466.805-.046 1.772.36 2.707.237.544.532 1.222.45 1.53-.076.282-.653.707-1.114 1.047C.905 13.37 0 14.037 0 15c0 .963.905 1.63 1.703 2.219.463.34 1.039.765 1.114 1.047.083.308-.21.986-.448 1.53-.406.934-.826 1.9-.36 2.707.47.816 1.528.935 2.55 1.05.583.065 1.308.146 1.524.363.218.217.3.942.364 1.525.115 1.022.234 2.078 1.05 2.55.707.411 1.759.053 2.707-.36.523-.227 1.058-.456 1.531-.448.282.074.706.65 1.048 1.114C13.37 29.095 14.037 30 15 30c.961 0 1.63-.905 2.216-1.702.342-.463.766-1.04 1.165-1.128.352 0 .892.234 1.414.461.95.414 2 .77 2.705.362.818-.473.936-1.53 1.051-2.552.064-.583.146-1.307.363-1.524.218-.218.943-.3 1.525-.364 1.022-.115 2.08-.235 2.551-1.05.467-.805.047-1.772-.36-2.707-.237-.544-.53-1.22-.449-1.53.076-.282.652-.707 1.114-1.047C29.095 16.63 30 15.963 30 15c0-.963-.905-1.63-1.703-2.219zm-.773 3.385c-.692.51-1.408 1.037-1.601 1.76-.2.748.163 1.582.514 2.388.224.516.563 1.296.427 1.532-.142.247-.999.344-1.567.407-.867.098-1.763.199-2.303.739s-.64 1.436-.737 2.302c-.064.567-.16 1.425-.408 1.568a.32.32 0 01-.146.027c-.34 0-.871-.232-1.386-.455-.81-.351-1.694-.7-2.387-.513-.724.193-1.251.91-1.762 1.602-.345.467-.865 1.173-1.168 1.173-.303 0-.824-.706-1.167-1.173-.51-.691-1.037-1.407-1.761-1.6a1.77 1.77 0 00-.455-.058c-.623 0-1.289.29-1.933.572-.514.223-1.046.455-1.387.455a.32.32 0 01-.146-.028c-.248-.143-.343-1-.407-1.567-.098-.867-.198-1.763-.738-2.303-.539-.54-1.436-.64-2.302-.738-.566-.064-1.425-.16-1.567-.407-.137-.235.204-1.016.428-1.533.35-.806.713-1.64.514-2.388-.195-.722-.91-1.25-1.602-1.76-.467-.345-1.172-.865-1.172-1.168 0-.303.705-.823 1.172-1.169.693-.51 1.409-1.037 1.602-1.76.2-.748-.163-1.582-.514-2.388-.223-.516-.564-1.296-.428-1.532.144-.247 1-.343 1.568-.406.866-.098 1.762-.198 2.302-.738s.64-1.436.738-2.302c.063-.568.16-1.425.407-1.568a.321.321 0 01.146-.028c.34 0 .872.233 1.386.457.808.35 1.691.702 2.387.513.723-.193 1.25-.91 1.762-1.602.344-.467.865-1.173 1.167-1.173.303 0 .825.706 1.169 1.171.51.692 1.037 1.408 1.76 1.6.69.185 1.579-.16 2.388-.512.514-.223 1.046-.455 1.386-.455a.32.32 0 01.146.028c.248.143.343 1 .407 1.567.098.866.198 1.763.738 2.303s1.437.64 2.303.738c.566.064 1.424.16 1.566.407.137.235-.203 1.016-.428 1.532-.35.806-.713 1.64-.514 2.389.195.722.91 1.25 1.602 1.76.467.345 1.173.865 1.173 1.168 0 .303-.706.823-1.172 1.166z"/><path d="M11.087 11.74a.652.652 0 00-.652.651v3.261L7.695 12a.65.65 0 00-1.173.391v5.218a.652.652 0 001.304 0v-3.261L10.566 18a.653.653 0 001.173-.391V12.39a.652.652 0 00-.652-.652zm5.217 5.216h-1.956v-3.913h1.956a.652.652 0 000-1.304h-2.608a.652.652 0 00-.652.652v5.218c0 .36.292.652.652.652h2.608a.652.652 0 000-1.305z"/><path d="M16.304 14.348h-2.608a.652.652 0 000 1.304h2.608a.652.652 0 000-1.304zm7.983-2.589a.649.649 0 00-.79.474l-.76 3.045-.597-1.789c-.177-.532-1.06-.532-1.238 0l-.596 1.789-.76-3.045a.653.653 0 00-1.265.316l1.304 5.218a.65.65 0 00.608.492.621.621 0 00.644-.444l.685-2.057.685 2.057c.09.267.339.446.62.446.007 0 .016 0 .023-.002a.65.65 0 00.607-.492l1.305-5.218a.65.65 0 00-.475-.79z"/></g><defs><clipPath id="clip0"><path fill="#fff" d="M0 0h30v30H0z"/></clipPath></defs></svg>