<svg width="30" height="30" fill="none" xmlns="http://www.w3.org/2000/svg"><path d="M27.355 13.548l-.678-.677V.484c0-.29-.193-.484-.483-.484H9.742c-.29 0-.484.194-.484.484v14.322l-5.71 5.71A5.314 5.314 0 002 24.242v.435A5.307 5.307 0 007.323 30h.435a5.387 5.387 0 003.194-1.064A5.388 5.388 0 0014.145 30h.436c1.403 0 2.758-.58 3.774-1.548l7.258-7.259.677-.338a4.278 4.278 0 002.42-3.871v-.339c-.097-1.21-.533-2.322-1.355-3.097zM19.903.968h5.807v1.935h-5.807V.968zm0 2.903h5.807v.968h-5.807V3.87zm-.822 9.532l.822.823c.63.629 1.016 1.5 1.016 2.37v.34a3.386 3.386 0 01-1.887 3.048l-.435.242-.436-.436c-.726-.726-1.113-1.693-1.113-2.758v-.242c0-1.016.388-2.032 1.113-2.758l.823-.822c0 .048.048.145.097.193zM10.226.968h8.71v1.935h-8.71V.968zm0 2.903h8.71v.968h-8.71V3.87zM7.758 29.032h-.435a4.337 4.337 0 01-4.355-4.355v-.435c0-1.065.387-2.13 1.161-2.952 1.645 0 3.194.678 4.355 1.839l.387.387c1.161 1.161 1.839 2.71 1.839 4.355-.823.726-1.839 1.161-2.952 1.161zm1.79-6.193l-.387-.387A7.078 7.078 0 005 20.419l5.08-5.08a.44.44 0 00.146-.339V5.806h8.71v6.097l-1.5 1.5c-.92.871-1.404 2.13-1.404 3.387v.242c0 1.307.484 2.516 1.404 3.436l.338.338L11.581 27c-.194-1.548-.92-3-2.033-4.161zm4.984 6.193h-.435c-.871 0-1.742-.242-2.42-.726l4.355-4.354c.92 1.112 1.452 2.467 1.452 3.919a4.296 4.296 0 01-2.952 1.161zm3.823-2.08a7.296 7.296 0 00-1.694-3.726l2.033-2.032.677-.34c1.5-.725 2.42-2.225 2.42-3.918v-.34c0-1.16-.436-2.273-1.259-3.096l-.629-.629V5.806h5.807v6.097l-1.5 1.5c-.92.871-1.404 2.13-1.404 3.387v.242c0 1.307.484 2.516 1.404 3.436l.338.338-6.193 6.146zm7.403-6.92l-.435.242-.436-.435c-.726-.726-1.113-1.694-1.113-2.758v-.242c0-1.016.387-2.032 1.113-2.758l.823-.823a.37.37 0 00.096.194l.823.822c.63.63 1.016 1.5.968 2.371v.339h.048a3.386 3.386 0 01-1.887 3.048z" fill="#839B64"/></svg>