<svg width="21" height="30" fill="none" xmlns="http://www.w3.org/2000/svg"><path d="M5 13.5v7.061A5.362 5.362 0 002.601 20H.5a.5.5 0 00-.5.5v4.101A5.405 5.405 0 005.399 30h10.202A5.405 5.405 0 0021 24.601V20.5a.5.5 0 00-.5-.5h-2.101a5.361 5.361 0 00-2.399.561V13.5a2.502 2.502 0 00-2.5-2.5v-1a1.5 1.5 0 00.5-2.914V4.5A1.501 1.501 0 0012.5 3V2a2 2 0 10-4 0v1A1.502 1.502 0 007 4.5v2.586A1.5 1.5 0 007.5 10v1A2.503 2.503 0 005 13.5zM6 26V16h9v10H6zm-5-1.399V21h1.601A4.362 4.362 0 015 21.712v3.299l-1.589-2.296a.5.5 0 00-.822.57L5 26.767v.733c0 .541.175 1.068.501 1.5H5.4A4.404 4.404 0 011 24.601zM7.5 29A1.501 1.501 0 016 27.5V27h9v.5a1.502 1.502 0 01-1.5 1.5h-6zm10.899-8H20v3.601A4.404 4.404 0 0115.601 29h-.102A2.49 2.49 0 0016 27.5v-.733l2.411-3.482a.5.5 0 10-.822-.57L16 25.01v-3.298A4.362 4.362 0 0118.399 21zM15 13.5V15H6v-1.5A1.502 1.502 0 017.5 12h6a1.502 1.502 0 011.5 1.5zM9.5 2a1 1 0 012 0v1h-2V2zm-1 2h4a.5.5 0 01.5.5V7h-1V6a.5.5 0 00-1 0v1h-1V6a.5.5 0 10-1 0v1H8V4.5a.5.5 0 01.5-.5zM7 8.5a.5.5 0 01.5-.5h6a.5.5 0 010 1h-6a.5.5 0 01-.5-.5zM8.5 10h4v1h-4v-1z" fill="#839B64"/><path d="M10.854 17.646a.502.502 0 00-.708 0C10.06 17.734 8 19.818 8 22c0 1.005.453 1.786 1.276 2.197.382.188.8.291 1.224.303a2.963 2.963 0 001.224-.303C12.547 23.786 13 23.005 13 22c0-2.182-2.059-4.266-2.146-4.354zm.448 5.644a2.01 2.01 0 01-.8.21 2.006 2.006 0 01-.804-.21C9.228 23.044 9 22.622 9 22c0-1.278.962-2.607 1.5-3.25.538.643 1.5 1.972 1.5 3.25 0 .622-.228 1.044-.698 1.29z" fill="#839B64"/></svg>