<svg width="25" height="27" fill="none" xmlns="http://www.w3.org/2000/svg"><path d="M11.064 11.71c.226-1.407.46-2.862.46-4.424 0-1.811-.445-3.528-1.252-4.834C9.295.87 7.822 0 6.124 0 2.52 0 .009 3.919.009 7.436c0 8.315 2.816 15.753 3.797 17.404A4.23 4.23 0 007.49 27a4.23 4.23 0 003.83-6.01c-1.136-3.814-.69-6.593-.257-9.28zM7.49 25.418a2.648 2.648 0 01-2.321-1.38c-.79-1.32-3.58-8.528-3.58-16.602 0-2.763 1.94-5.854 4.534-5.854 1.162 0 2.105.572 2.802 1.701.645 1.045 1.016 2.504 1.016 4.003 0 1.435-.214 2.765-.44 4.173-.463 2.877-.941 5.852.322 10.044.012.04.027.08.046.118a2.646 2.646 0 01-2.378 3.797z" fill="#839B64"/><path d="M8.225 6.458c-.133-.036-3.277-.86-5.516 1.249a.791.791 0 101.084 1.151c1.584-1.49 3.986-.882 4.019-.873a.791.791 0 00.413-1.527zM7.51 20.97c-.414 0-.81.364-.792.792.02.428.348.79.791.79.414 0 .81-.363.791-.79-.019-.429-.347-.791-.79-.791zM5.4 18.088c-.414 0-.81.364-.791.79.02.43.348.792.791.792.414 0 .81-.364.791-.791-.02-.429-.348-.791-.791-.791zM18.876 0c-1.698 0-3.171.87-4.148 2.452-.807 1.306-1.252 3.023-1.252 4.834 0 1.562.234 3.017.46 4.424.432 2.687.879 5.465-.258 9.28a4.23 4.23 0 003.83 6.01 4.23 4.23 0 003.686-2.16c.98-1.651 3.797-9.089 3.797-17.404C24.991 3.919 22.48 0 18.876 0zm.954 24.038a2.648 2.648 0 01-2.322 1.38 2.646 2.646 0 01-2.378-3.797.792.792 0 00.046-.118c1.263-4.192.785-7.167.322-10.044-.226-1.408-.44-2.738-.44-4.173 0-1.5.37-2.958 1.016-4.003.697-1.129 1.64-1.701 2.802-1.701 2.595 0 4.533 3.09 4.533 5.854 0 8.074-2.79 15.282-3.579 16.602z" fill="#839B64"/><path d="M22.291 7.707c-2.239-2.11-5.383-1.285-5.516-1.25a.791.791 0 00.416 1.527c.024-.006 2.414-.634 4.016.874a.788.788 0 001.118-.033.79.79 0 00-.034-1.118zM17.49 20.97c-.413 0-.81.364-.79.792.019.428.347.79.79.79.414 0 .81-.363.792-.79-.02-.429-.348-.791-.791-.791zm2.11-2.882c-.414 0-.81.364-.791.79.02.43.348.792.791.792.414 0 .81-.364.791-.791-.02-.429-.347-.791-.791-.791z" fill="#839B64"/></svg>