<svg width="27" height="27" fill="none" xmlns="http://www.w3.org/2000/svg"><g clip-path="url(#clip0)"><path d="M15.323 26.947H10.99a1.312 1.312 0 01-1.313-1.31v-9.752H7.151a1.313 1.313 0 01-1.312-1.31v-4.179c0-.722.588-1.31 1.312-1.31h2.527V6.995c0-2.075.653-3.84 1.888-5.105C12.806.619 14.54-.053 16.58-.053l3.304.006c.723 0 1.31.588 1.31 1.31v3.88c0 .722-.588 1.31-1.312 1.31h-2.224c-.679 0-.851.136-.888.177-.061.07-.134.264-.134.803v1.653h3.08a1.314 1.314 0 011.324 1.31l-.002 4.18c0 .721-.589 1.309-1.312 1.309h-3.09v9.753c0 .722-.588 1.31-1.312 1.31zm-4.059-1.583h3.785V15.176c0-.482.393-.874.876-.874h3.526l.002-3.633h-3.528a.876.876 0 01-.876-.874V7.433c0-.618.063-1.322.53-1.85.566-.64 1.457-.713 2.077-.713h1.951V1.534l-3.029-.005c-3.277 0-5.314 2.094-5.314 5.464v2.801a.876.876 0 01-.876.874H7.425v3.633h2.963c.483 0 .876.392.876.874v10.188zM19.88 1.535z" fill="#564A4A"/></g><defs><clipPath id="clip0"><path fill="#fff" d="M0 0h27v27H0z"/></clipPath></defs></svg>