<svg width="27" height="27" fill="none" xmlns="http://www.w3.org/2000/svg"><g clip-path="url(#clip0)" fill="#564A4A"><path d="M21.626 14.045c-.682-1.331-2.341-1.836-3.966-.56-.016.013-1.624 1.247-4.157 1.247-2.532 0-4.141-1.235-4.157-1.246-1.617-1.278-3.29-.778-3.968.562l-.005.011c-1.007 2.06.656 3.133 1.993 3.996.827.532 1.885.934 3.155 1.2l-3.606 3.613c-2.177 2.173 1.234 5.6 3.434 3.45l3.165-3.181c1.219 1.22 2.354 2.36 3.173 3.194 2.171 2.132 5.605-1.236 3.44-3.458-2.582-2.58-3.137-3.137-3.626-3.617 2.696-.577 6.445-2.468 5.125-5.211zm-6.778 3.774c-.583-.28-1.357.784-.72 1.446l.006.006.005.005.005.006c.324.323 4.684 4.677 4.78 4.775.606.622-.46 1.65-1.047 1.08a746.34 746.34 0 00-3.769-3.792.843.843 0 00-1.194 0l-3.756 3.773c-.595.582-1.656-.457-1.053-1.058l4.775-4.784a.031.031 0 00.006-.007c.592-.582-.006-1.662-.704-1.457-1.661-.194-3.008-.6-3.904-1.176-1.733-1.12-1.646-1.317-1.395-1.83.729-1.397 2.02 1.614 6.618 1.614 3.149 0 5.124-1.547 5.202-1.61.513-.402 1.115-.59 1.41-.015.252.521.345.716-1.392 1.844-1.186.755-2.862 1.06-3.873 1.18zm-1.349-6.572a3.993 3.993 0 003.986-3.992c0-2.21-1.788-4.007-3.986-4.007-2.197 0-3.985 1.798-3.985 4.007a3.992 3.992 0 003.985 3.992zm0-6.311c1.266 0 2.298 1.04 2.298 2.32a2.304 2.304 0 01-2.298 2.303A2.305 2.305 0 0111.2 7.254a2.311 2.311 0 012.3-2.318z"/><path d="M13.499 14.493c3.992 0 7.241-3.248 7.241-7.239 0-4-3.249-7.254-7.241-7.254-3.993 0-7.242 3.255-7.242 7.254 0 3.992 3.248 7.24 7.242 7.24zm0-12.806c3.062 0 5.554 2.498 5.554 5.567a5.559 5.559 0 01-5.554 5.552 5.559 5.559 0 01-5.554-5.552c0-3.069 2.49-5.566 5.554-5.566z"/></g><defs><clipPath id="clip0"><path fill="#fff" d="M0 0h27v27H0z"/></clipPath></defs></svg>